<svg width="12" height="11" viewBox="0 0 12 11" fill="none" xmlns="http://www.w3.org/2000/svg">
<path d="M11.0831 4.08249C11.0023 3.82968 10.7607 3.65592 10.4203 3.60572L7.72134 3.20734L6.51432 0.723356C6.36209 0.410124 6.12473 0.230469 5.86304 0.230469C5.60136 0.230469 5.364 0.410124 5.21179 0.723356L4.00481 3.20732L1.30577 3.6057C0.9654 3.6559 0.723831 3.82968 0.642952 4.08245C0.562095 4.33523 0.656975 4.62002 0.903219 4.86383L2.85625 6.79731L2.3952 9.52757C2.33457 9.88669 2.43753 10.1015 2.53461 10.2184C2.64814 10.3551 2.81377 10.4305 3.00099 10.4305C3.14254 10.4305 3.29328 10.3883 3.44895 10.3052L5.86304 9.0161L8.27714 10.3051C8.43285 10.3883 8.58357 10.4304 8.72514 10.4304H8.72518C8.91242 10.4304 9.07805 10.3551 9.19159 10.2183C9.28864 10.1015 9.39162 9.88667 9.33098 9.52752L8.86986 6.79733L10.8229 4.86387C11.0692 4.62006 11.164 4.33525 11.0831 4.08249Z" fill="#FF8412"/>
</svg>
